<svg width="88" height="22" viewBox="0 0 88 22" fill="none" xmlns="http://www.w3.org/2000/svg">
<path d="M9.69684 1.99994L0 11.6968L9.69684 21.3936L19.3937 11.6968L9.69684 1.99994ZM9.62409 8.3611L12.8866 11.624L9.62409 14.8866L6.36116 11.624L9.62409 8.3611Z" fill="#D5D5D5"/>
<path d="M28.02 17.144C27.204 17.144 26.49 16.964 25.878 16.604C25.266 16.244 24.786 15.698 24.438 14.966C24.102 14.222 23.934 13.286 23.934 12.158C23.934 11.018 24.096 10.082 24.42 9.35C24.744 8.618 25.212 8.072 25.824 7.712C26.436 7.352 27.168 7.172 28.02 7.172C28.932 7.172 29.748 7.382 30.468 7.802C31.2 8.21 31.776 8.786 32.196 9.53C32.628 10.274 32.844 11.15 32.844 12.158C32.844 13.178 32.628 14.06 32.196 14.804C31.776 15.548 31.2 16.124 30.468 16.532C29.748 16.94 28.932 17.144 28.02 17.144ZM22.296 20.492V7.316H24.978V9.296L24.924 12.176L25.104 15.038V20.492H22.296ZM27.534 14.84C28.002 14.84 28.416 14.732 28.776 14.516C29.148 14.3 29.442 13.994 29.658 13.598C29.886 13.19 30 12.71 30 12.158C30 11.594 29.886 11.114 29.658 10.718C29.442 10.322 29.148 10.016 28.776 9.8C28.416 9.584 28.002 9.476 27.534 9.476C27.066 9.476 26.646 9.584 26.274 9.8C25.902 10.016 25.608 10.322 25.392 10.718C25.176 11.114 25.068 11.594 25.068 12.158C25.068 12.71 25.176 13.19 25.392 13.598C25.608 13.994 25.902 14.3 26.274 14.516C26.646 14.732 27.066 14.84 27.534 14.84ZM34.3637 17V7.316H37.1717V17H34.3637ZM35.7677 5.966C35.2517 5.966 34.8317 5.816 34.5077 5.516C34.1837 5.216 34.0217 4.844 34.0217 4.4C34.0217 3.956 34.1837 3.584 34.5077 3.284C34.8317 2.984 35.2517 2.834 35.7677 2.834C36.2837 2.834 36.7037 2.978 37.0277 3.266C37.3517 3.542 37.5137 3.902 37.5137 4.346C37.5137 4.814 37.3517 5.204 37.0277 5.516C36.7157 5.816 36.2957 5.966 35.7677 5.966ZM41.7398 15.02L41.8118 11.6L46.3298 7.316H49.6778L45.3398 11.726L43.8818 12.914L41.7398 15.02ZM39.4178 17V3.644H42.2258V17H39.4178ZM46.6358 17L43.3598 12.932L45.1238 10.754L50.0378 17H46.6358ZM51.2826 17V7.1C51.2826 6.008 51.6066 5.138 52.2546 4.49C52.9026 3.83 53.8266 3.5 55.0266 3.5C55.4346 3.5 55.8246 3.542 56.1966 3.626C56.5806 3.71 56.9046 3.842 57.1686 4.022L56.4306 6.056C56.2746 5.948 56.1006 5.864 55.9086 5.804C55.7166 5.744 55.5126 5.714 55.2966 5.714C54.8886 5.714 54.5706 5.834 54.3426 6.074C54.1266 6.302 54.0186 6.65 54.0186 7.118V8.018L54.0906 9.224V17H51.2826ZM49.7886 9.692V7.532H56.5026V9.692H49.7886ZM58.0866 17V7.316H60.8946V17H58.0866ZM59.4906 5.966C58.9746 5.966 58.5546 5.816 58.2306 5.516C57.9066 5.216 57.7446 4.844 57.7446 4.4C57.7446 3.956 57.9066 3.584 58.2306 3.284C58.5546 2.984 58.9746 2.834 59.4906 2.834C60.0066 2.834 60.4266 2.978 60.7506 3.266C61.0746 3.542 61.2366 3.902 61.2366 4.346C61.2366 4.814 61.0746 5.204 60.7506 5.516C60.4386 5.816 60.0186 5.966 59.4906 5.966ZM61.9074 17L66.2454 11.312L66.1914 12.86L62.0334 7.316H65.1834L67.8114 10.934L66.6234 10.97L69.3414 7.316H72.3294L68.1534 12.806V11.294L72.4734 17H69.2874L66.5334 13.148L67.7034 13.31L64.9674 17H61.9074Z" fill="#D5D5D5"/>
</svg>
